<?xml version="1.0" encoding="UTF-8"?>
<!DOCTYPE svg PUBLIC "-//W3C//DTD SVG 1.1//EN" "http://www.w3.org/Graphics/SVG/1.1/DTD/svg11.dtd">
<svg version="1.1" xmlns="http://www.w3.org/2000/svg" xmlns:xlink="http://www.w3.org/1999/xlink" width="100" height="100"  xml:space="preserve" id="identity">
    <!-- Generated by PaintCode (www.paintcodeapp.com) -->
    <g id="identity-group2" transform="translate(-3.98, 14.08)" >
        <g id="identity-group3" transform="translate(37.42, 26.5) rotate(-0.81) scale(1.06, 1.04)" >
            <rect id="identity-rectangle" stroke="rgb(0, 0, 0)" stroke-width="2" fill="rgb(255, 255, 255)" x="-25" y="-15" width="50" height="30" rx="3" />
            <g id="identity-group4">
                <path id="identity-bezier2" stroke="rgb(0, 0, 0)" stroke-width="2" stroke-linecap="round" stroke-miterlimit="10" fill="rgb(255, 255, 255)" d="M -17,1 C -17,1 -16.31,-0 -15.51,-0 -14.72,-0 -13.81,1 -13.81,1 -13.81,1 -12.96,2 -12.11,2 -11.26,2 -10.41,1 -10.41,1 -10.41,1 -9.72,-0 -8.93,-0 -8.13,-0 -7.23,1 -7.23,1 -7.23,1 -6.48,2 -5.74,2 -4.99,2 -4.25,1 -4.25,1 -4.25,1 -3.56,-0 -2.76,-0 -1.97,-0 -1.06,1 -1.06,1 -1.06,1 -0.21,2 0.64,2 1.49,2 2.34,1 2.34,1 2.34,1 3.03,-0 3.82,-0 4.62,-0 5.52,1 5.52,1 5.52,1 6.27,2 7.01,2 7.76,2 8.5,1 8.5,1 M 8.5,1 C 8.5,1 9.19,-0 9.99,-0 10.78,-0 11.69,1 11.69,1 11.69,1 12.54,2 13.39,2 14.24,2 15.09,1 15.09,1 15.09,1 15.78,-0 16.57,-0 17.37,-0 18.27,1 18.27,1" />
            </g>
        </g>
        <g id="identity-group5" transform="translate(42.01, 31.07) rotate(-0.81) scale(1.09, 1.08)" >
            <rect id="identity-rectangle2" stroke="rgb(0, 0, 0)" stroke-width="2" fill="rgb(255, 255, 255)" x="-25" y="-15" width="50" height="30" rx="3" />
            <g id="identity-group6">
                <path id="identity-bezier" stroke="rgb(0, 0, 0)" stroke-width="2" stroke-linecap="round" stroke-miterlimit="10" fill="rgb(255, 255, 255)" d="M -17,1 C -17,1 -16.31,-0 -15.51,-0 -14.72,-0 -13.81,1 -13.81,1 -13.81,1 -12.96,2 -12.11,2 -11.26,2 -10.41,1 -10.41,1 -10.41,1 -9.72,-0 -8.93,-0 -8.13,-0 -7.23,1 -7.23,1 -7.23,1 -6.48,2 -5.74,2 -4.99,2 -4.25,1 -4.25,1 -4.25,1 -3.56,-0 -2.76,-0 -1.97,-0 -1.06,1 -1.06,1 -1.06,1 -0.21,2 0.64,2 1.49,2 2.34,1 2.34,1 2.34,1 3.03,-0 3.82,-0 4.62,-0 5.52,1 5.52,1 5.52,1 6.27,2 7.01,2 7.76,2 8.5,1 8.5,1 M 8.5,1 C 8.5,1 9.19,-0 9.99,-0 10.78,-0 11.69,1 11.69,1 11.69,1 12.54,2 13.39,2 14.24,2 15.09,1 15.09,1 15.09,1 15.78,-0 16.57,-0 17.37,-0 18.27,1 18.27,1" />
            </g>
        </g>
        <g id="identity-group7" transform="translate(50.62, 37.36) rotate(-0.81) scale(1.11, 1.11)" >
            <rect id="identity-rectangle3" stroke="rgb(0, 0, 0)" stroke-width="2" fill="rgb(255, 255, 255)" x="-25" y="-15" width="50" height="30" rx="3" />
            <g id="identity-group8">
                <path id="identity-bezier3" stroke="rgb(0, 0, 0)" stroke-width="2" stroke-linecap="round" stroke-miterlimit="10" fill="rgb(255, 255, 255)" d="M -17,1 C -17,1 -16.31,-0 -15.51,-0 -14.72,-0 -13.81,1 -13.81,1 -13.81,1 -12.96,2 -12.11,2 -11.26,2 -10.41,1 -10.41,1 -10.41,1 -9.72,-0 -8.93,-0 -8.13,-0 -7.23,1 -7.23,1 -7.23,1 -6.48,2 -5.74,2 -4.99,2 -4.25,1 -4.25,1 -4.25,1 -3.56,-0 -2.76,-0 -1.97,-0 -1.06,1 -1.06,1 -1.06,1 -0.21,2 0.64,2 1.49,2 2.34,1 2.34,1 2.34,1 3.03,-0 3.82,-0 4.62,-0 5.52,1 5.52,1 5.52,1 6.27,2 7.01,2 7.76,2 8.5,1 8.5,1 M 8.5,1 C 8.5,1 9.19,-0 9.99,-0 10.78,-0 11.69,1 11.69,1 11.69,1 12.54,2 13.39,2 14.24,2 15.09,1 15.09,1 15.09,1 15.78,-0 16.57,-0 17.37,-0 18.27,1 18.27,1" />
            </g>
        </g>
        <g id="identity-group9" transform="translate(68.89, 46.78) rotate(-0.81) scale(1.15, 1.14)" >
            <rect id="identity-rectangle4" stroke="rgb(0, 0, 0)" stroke-width="2" fill="rgb(255, 255, 255)" x="-25" y="-15" width="50" height="30" rx="3" />
            <g id="identity-group10">
                <path id="identity-bezier4" stroke="rgb(0, 0, 0)" stroke-width="2" stroke-linecap="round" stroke-miterlimit="10" fill="rgb(255, 255, 255)" d="M -17,1 C -17,1 -16.31,-0 -15.51,-0 -14.72,-0 -13.81,1 -13.81,1 -13.81,1 -12.96,2 -12.11,2 -11.26,2 -10.41,1 -10.41,1 -10.41,1 -9.72,-0 -8.93,-0 -8.13,-0 -7.22,1 -7.22,1 -7.22,1 -6.48,2 -5.74,2 -4.99,2 -4.25,1 -4.25,1 -4.25,1 -3.56,-0 -2.76,-0 -1.97,-0 -1.06,1 -1.06,1 -1.06,1 -0.21,2 0.64,2 1.49,2 2.34,1 2.34,1 2.34,1 3.03,-0 3.82,-0 4.62,-0 5.52,1 5.52,1 5.52,1 6.27,2 7.01,2 7.76,2 8.5,1 8.5,1 M 8.5,1 C 8.5,1 9.19,-0 9.99,-0 10.78,-0 11.69,1 11.69,1 11.69,1 12.54,2 13.39,2 14.24,2 15.09,1 15.09,1 15.09,1 15.78,-0 16.58,-0 17.37,-0 18.27,1 18.27,1" />
            </g>
        </g>
    </g>
</svg>
